<svg id="Layer_1" data-name="Layer 1" xmlns="http://www.w3.org/2000/svg" viewBox="0 0 277.04 68"><title>taxcalc-logo</title><path d="M90,49.18a18.54,18.54,0,0,0,5.42-1v6.41a19.31,19.31,0,0,1-8,1.41Q82.33,56,80,53.42t-2.36-7.83V30.39H73.49V26.75l4.74-2.88,2.48-6.66h5.5v6.71H95v6.46H86.21V45.59a3.38,3.38,0,0,0,1,2.71,4.06,4.06,0,0,0,2.72.88" fill="#293033"/><path d="M118,40.85l-3.33.11A10.7,10.7,0,0,0,109,42.32a4.26,4.26,0,0,0-1.83,3.78q0,3.65,4.2,3.65A6.61,6.61,0,0,0,116.17,48,6,6,0,0,0,118,43.43Zm2.54,14.62-1.66-4.29h-.23A12.62,12.62,0,0,1,114.2,55a14.34,14.34,0,0,1-6,1.06,9.68,9.68,0,0,1-7.13-2.6Q98.42,50.85,98.41,46t3.51-7.41q3.51-2.42,10.59-2.59l5.47-.17V34.45q0-4.8-4.91-4.8a22.34,22.34,0,0,0-8.89,2.29l-2.86-5.81a25.61,25.61,0,0,1,12.08-2.85q6.34,0,9.73,2.76t3.39,8.41v21Z" fill="#293033"/><polygon points="139.72 39.35 129.57 23.92 139.33 23.92 145.45 33.97 151.63 23.92 161.39 23.92 151.12 39.35 161.87 55.47 152.08 55.47 145.45 44.66 138.79 55.47 129.03 55.47 139.72 39.35" fill="#293033"/><path d="M176.75,56Q162,56,162,39.86q0-8,4-12.28t11.48-4.25a21.79,21.79,0,0,1,9.82,2.15l-2.54,6.66A38.17,38.17,0,0,0,181,30.8a12.21,12.21,0,0,0-3.5-.52q-6.71,0-6.72,9.54,0,9.26,6.72,9.25a15.24,15.24,0,0,0,4.6-.66,16.29,16.29,0,0,0,4.23-2.07V53.7a13.8,13.8,0,0,1-4.22,1.83,23.62,23.62,0,0,1-5.37.51" fill="#293033"/><path d="M209.16,40.85l-3.33.11a10.69,10.69,0,0,0-5.59,1.35,4.26,4.26,0,0,0-1.83,3.78q0,3.64,4.17,3.64A6.63,6.63,0,0,0,207.36,48a6,6,0,0,0,1.79-4.57Zm2.54,14.62L210,51.18h-.23A12.67,12.67,0,0,1,205.32,55a14.34,14.34,0,0,1-6,1.06,9.65,9.65,0,0,1-7.15-2.6q-2.61-2.6-2.61-7.39,0-5,3.51-7.41T203.66,36l5.47-.17V34.45q0-4.8-4.91-4.8a22.34,22.34,0,0,0-8.89,2.29l-2.85-5.81a25.69,25.69,0,0,1,12.07-2.85q6.34,0,9.74,2.76t3.38,8.41v21Z" fill="#293033"/><rect x="223.68" y="11.56" width="8.6" height="43.9" fill="#293033"/><path d="M252.3,56q-14.73,0-14.73-16.17,0-8,4-12.28T253,23.33a21.79,21.79,0,0,1,9.82,2.15l-2.54,6.66a39.48,39.48,0,0,0-3.78-1.34,12.21,12.21,0,0,0-3.5-.52q-6.72,0-6.72,9.54,0,9.26,6.72,9.25a15.24,15.24,0,0,0,4.6-.66,16.29,16.29,0,0,0,4.23-2.07V53.7a13.8,13.8,0,0,1-4.22,1.83,23.62,23.62,0,0,1-5.37.51" fill="#293033"/><path d="M271,21.53h.74a1.26,1.26,0,0,0,.87-.28.89.89,0,0,0,.33-.71.84.84,0,0,0-.29-.73,1.57,1.57,0,0,0-.92-.22H271Zm3-1a1.68,1.68,0,0,1-.29,1,1.72,1.72,0,0,1-.81.62l1.63,2.6h-1.14L272,22.35H271v2.4h-1v-6h1.77a2.55,2.55,0,0,1,1.65.44,1.63,1.63,0,0,1,.58,1.32m-6.5,1.24a4.41,4.41,0,0,0,4.39,4.39,4.21,4.21,0,0,0,2.19-.59,4.39,4.39,0,1,0-6-6,4.28,4.28,0,0,0-.6,2.2m-.71,0a5.11,5.11,0,0,1,7.66-4.42,4.94,4.94,0,0,1,1.87,1.87,5.1,5.1,0,0,1-1.78,7h0a5.11,5.11,0,0,1-7.7-4.4" fill="#293033"/><polygon points="0.21 48.54 0 48.54 9.03 58.82 55.01 50.04 55.01 50.04 55.01 55.86 55.01 55.86 9.03 68 0 53.8 0.21 53.8 0.21 48.54" fill="#0b4578"/><polygon points="0.21 48.55 0 48.55 9.02 58.83 55.01 50.04 55.01 50.04 55.01 55.87 55.01 55.87 9.02 68 0 53.81 0.21 53.81 0.21 48.55" fill="#242e54" style="isolation:isolate"/><polygon points="0.21 41.97 0 41.97 13.47 47.46 55.01 42.75 55.01 42.75 55.02 48.56 55.01 48.58 13.47 56.72 0 47.23 0.21 47.23 0.21 41.97" fill="#b91755"/><polygon points="0 35.4 0 35.4 17.99 35.91 55.01 35.47 55.01 35.47 55.01 41.3 55.01 41.3 17.99 45.24 0 40.66 0.21 40.66 0.21 35.4 0 35.4" fill="#06aad0"/><polygon points="55.01 28.18 55.01 28.18 55.01 34.01 55.01 34.01 22.59 33.56 0 34.08 0.21 34.08 0.21 28.82 0 28.82 22.59 24.15 55.01 28.18" fill="#9c1975"/><polygon points="0 22.25 27.27 12.18 55.01 20.9 55.02 20.9 55.01 26.73 55.01 26.73 27.27 21.68 0 27.51 0.21 27.51 0.21 22.25 0 22.25" fill="#e15311"/><polyline points="32.04 0 32.04 9.58 0 20.93 0 15.68" fill="#48bbb8"/><polygon points="9.03 68 9.03 58.82 55.01 50.04 55.01 55.86 9.03 68" fill="#0f4578"/><polygon points="13.47 56.72 13.47 47.46 55.01 42.75 55.01 48.58 13.47 56.72" fill="#f18fa6"/><polygon points="17.99 45.24 17.99 35.91 55.01 35.47 55.01 41.3 17.99 45.24" fill="#83c6e4"/><polygon points="22.59 33.56 22.59 24.15 55.01 28.18 55.01 34.01 22.59 33.56" fill="#b77aaa"/><polygon points="55.01 26.73 27.27 21.68 27.27 12.18 55.01 20.9 55.01 26.73" fill="#ee9d72"/><polygon points="55.01 19.44 32.04 9.58 32.04 0 55.01 13.61 55.01 19.44" fill="#9bd3da"/></svg>